<?xml version="1.0" standalone="no"?>
<!DOCTYPE svg PUBLIC "-//W3C//DTD SVG 20010904//EN"
 "http://www.w3.org/TR/2001/REC-SVG-20010904/DTD/svg10.dtd">
<svg version="1.0" xmlns="http://www.w3.org/2000/svg"
 width="16.000000pt" height="16.000000pt" viewBox="0 0 16.000000 16.000000"
 preserveAspectRatio="xMidYMid meet">
<metadata>
Created by potrace 1.11, written by Peter Selinger 2001-2013
</metadata>
<g transform="translate(0.000000,16.000000) scale(0.001563,-0.001563)"
fill="#000000" stroke="none">
<path d="M4559 9633 c-1 -16 -16 -77 -19 -80 -2 -2 -3 -7 -4 -12 0 -5 -4 -12
-8 -16 -4 -4 -4 -14 -1 -23 4 -10 2 -13 -5 -8 -7 4 -9 -2 -6 -19 2 -14 0 -25
-6 -25 -6 0 -8 -4 -5 -10 3 -5 3 -16 -2 -22 -8 -13 -12 -29 -15 -60 -1 -10 -6
-18 -10 -18 -4 0 -7 -3 -7 -7 5 -30 -2 -63 -13 -57 -7 4 -8 3 -4 -5 4 -6 2
-28 -5 -49 -7 -20 -14 -44 -15 -52 -4 -21 -12 -55 -14 -55 -1 0 -3 -11 -6 -25
-2 -14 -7 -32 -11 -40 -3 -8 -5 -21 -4 -27 1 -7 -3 -13 -8 -13 -6 0 -8 -6 -5
-14 3 -8 1 -17 -5 -20 -6 -4 -7 -14 -4 -23 4 -10 2 -14 -4 -10 -7 5 -9 0 -6
-13 3 -11 0 -27 -7 -35 -6 -8 -9 -19 -6 -24 4 -5 2 -12 -4 -16 -15 -9 -12 -27
3 -20 6 4 4 0 -5 -8 -10 -8 -18 -28 -18 -46 0 -17 -4 -31 -10 -31 -5 0 -9 -3
-8 -7 2 -7 -10 -71 -17 -93 -1 -3 -5 -22 -9 -42 -5 -21 -11 -38 -15 -38 -4 0
-8 -11 -9 -25 -3 -46 -5 -55 -13 -55 -4 0 -6 -11 -4 -25 1 -14 -2 -28 -6 -31
-5 -3 -9 -16 -9 -30 0 -17 -4 -23 -12 -18 -8 5 -9 2 -5 -9 3 -9 0 -35 -8 -57
-15 -43 -15 -42 -15 -66 0 -8 -4 -13 -9 -10 -4 3 -6 -6 -3 -19 2 -14 0 -25 -4
-25 -8 0 -12 -17 -17 -72 -1 -10 -5 -18 -10 -18 -5 0 -7 -7 -3 -15 3 -8 1 -15
-4 -15 -5 0 -7 -9 -5 -20 2 -11 0 -20 -4 -20 -4 0 -8 -6 -9 -12 0 -7 -3 -23
-6 -35 -3 -13 -8 -32 -11 -43 -3 -11 -8 -30 -11 -42 -3 -13 -6 -29 -6 -35 -1
-7 -5 -13 -9 -13 -4 0 -6 -8 -4 -17 1 -10 -3 -24 -9 -32 -6 -8 -10 -17 -9 -20
4 -10 -9 -55 -19 -68 -6 -7 -5 -14 3 -18 8 -6 8 -9 -1 -15 -7 -4 -13 -21 -14
-38 0 -17 -4 -28 -7 -26 -4 2 -10 -13 -13 -34 -3 -20 -8 -44 -9 -54 -2 -9 -9
-23 -16 -32 -10 -12 -11 -16 -1 -16 9 0 10 -3 1 -13 -6 -8 -8 -17 -4 -20 3 -4
2 -7 -3 -7 -5 0 -10 -8 -11 -18 -1 -9 -8 -36 -16 -60 -10 -29 -11 -42 -3 -42
7 0 7 -3 -1 -8 -7 -4 -14 -18 -16 -30 -2 -12 -6 -25 -10 -28 -4 -4 -7 -19 -7
-34 0 -15 -3 -30 -7 -34 -5 -4 -8 -15 -8 -24 -1 -9 -6 -26 -12 -37 -6 -11 -9
-28 -8 -37 3 -15 -4 -17 -46 -14 -27 1 -49 -1 -49 -5 0 -4 -15 -4 -32 0 -42 8
-70 7 -86 -2 -6 -5 -12 -5 -12 0 0 4 -25 8 -55 8 -30 0 -55 -3 -55 -6 0 -4
-15 -4 -32 0 -42 8 -70 7 -86 -2 -6 -5 -12 -5 -12 0 0 4 -25 8 -55 8 -30 0
-55 -3 -55 -6 0 -4 -15 -4 -32 0 -18 4 -45 4 -60 0 -16 -4 -28 -4 -28 0 0 9
-54 6 -69 -4 -6 -3 -11 -2 -11 2 0 10 -53 9 -69 -2 -6 -3 -11 -2 -11 2 0 10
-53 9 -69 -2 -6 -3 -11 -2 -11 2 0 10 -53 9 -69 -2 -6 -3 -11 -2 -11 2 0 10
-53 9 -69 -2 -6 -3 -11 -2 -11 2 0 10 -53 9 -69 -2 -6 -3 -11 -3 -11 2 0 9
-87 8 -110 -1 -9 -4 -17 -18 -18 -32 -1 -14 -7 -34 -13 -46 -9 -16 -8 -19 3
-12 11 6 11 5 -1 -9 -7 -9 -11 -23 -7 -32 3 -8 0 -14 -6 -12 -6 1 -12 -11 -13
-28 -2 -16 -3 -30 -4 -30 -2 0 -5 -11 -7 -25 -3 -14 -9 -26 -14 -28 -5 -2 -6
-10 -4 -17 3 -8 2 -20 -2 -27 -9 -14 -12 -28 -16 -65 -1 -13 -6 -23 -10 -23
-4 0 -8 -11 -8 -24 0 -14 -4 -27 -8 -30 -4 -2 -8 -17 -7 -33 0 -15 -6 -33 -15
-40 -12 -10 -12 -12 -1 -13 10 0 11 -3 3 -13 -6 -7 -13 -24 -15 -37 -2 -14 -7
-32 -10 -40 -7 -15 -15 -55 -16 -78 -1 -7 -5 -11 -9 -8 -4 2 -9 -7 -10 -22 -4
-60 -7 -72 -15 -72 -4 0 -5 -4 -2 -10 3 -5 0 -10 -7 -10 -10 0 -9 -3 2 -10 12
-8 12 -10 -4 -16 -12 -5 -14 -9 -6 -14 8 -5 7 -12 -5 -24 -10 -10 -12 -16 -4
-16 9 0 9 -3 0 -14 -6 -8 -11 -18 -9 -22 1 -5 -3 -18 -9 -29 -6 -11 -9 -28 -8
-37 2 -10 0 -18 -4 -18 -4 0 -8 -6 -8 -14 0 -11 18 -15 75 -18 41 -2 75 -1 77
2 2 3 38 3 80 0 42 -3 78 -3 80 0 2 3 38 3 80 0 42 -3 78 -3 80 0 2 3 47 3
100 0 53 -3 98 -3 100 0 2 3 56 3 120 0 64 -3 118 -3 120 0 2 3 56 3 120 0 64
-3 119 -2 122 3 2 4 8 5 12 3 4 -3 32 -6 63 -7 56 -2 59 -5 43 -41 -4 -10 -8
-29 -9 -42 0 -13 -4 -22 -7 -20 -4 2 -9 -11 -12 -29 -7 -42 -11 -60 -18 -72
-4 -5 -6 -22 -5 -37 1 -14 -1 -25 -5 -22 -4 2 -10 -13 -15 -34 -9 -42 -10 -50
-14 -57 -1 -3 -3 -14 -4 -24 0 -11 -4 -23 -8 -27 -5 -4 -8 -18 -8 -31 0 -13
-3 -22 -7 -20 -5 3 -9 -11 -10 -31 -1 -19 -6 -38 -10 -41 -5 -3 -8 -16 -7 -28
1 -13 -3 -23 -8 -23 -6 0 -8 -7 -5 -15 4 -8 2 -17 -4 -20 -5 -4 -8 -12 -7 -18
1 -7 -4 -23 -11 -36 -7 -13 -8 -20 -2 -17 6 4 4 -9 -5 -29 -8 -20 -12 -40 -9
-45 3 -4 1 -10 -5 -12 -5 -1 -10 -18 -12 -35 -1 -18 -6 -33 -10 -33 -3 0 -7
-8 -8 -17 -2 -53 -6 -71 -12 -66 -8 4 -12 -19 -9 -44 1 -7 -2 -13 -7 -13 -5 0
-9 -10 -8 -23 1 -12 -2 -25 -6 -28 -4 -3 -9 -17 -10 -32 -1 -15 -6 -27 -10
-27 -4 0 -5 -6 -2 -14 3 -8 0 -17 -6 -21 -8 -5 -8 -11 1 -21 9 -11 8 -15 -4
-20 -9 -3 -14 -14 -12 -25 2 -10 0 -19 -5 -19 -5 0 -7 -7 -4 -15 4 -8 1 -15
-4 -15 -6 0 -9 -9 -7 -20 2 -11 -1 -22 -6 -25 -5 -4 -7 -11 -4 -16 4 -5 2 -9
-2 -9 -5 0 -9 -8 -10 -17 -2 -27 -13 -75 -21 -87 -3 -6 -7 -24 -8 -39 -2 -16
-8 -35 -14 -43 -10 -11 -10 -14 1 -14 12 0 11 -2 0 -9 -8 -5 -15 -25 -15 -45
-1 -20 -5 -36 -11 -36 -5 0 -11 -10 -11 -22 -2 -22 -11 -63 -14 -63 -1 0 -3
-7 -5 -15 -2 -8 -6 -25 -9 -37 -14 -54 -17 -69 -22 -93 -3 -13 -7 -27 -10 -29
-3 -3 -287 -6 -632 -7 -345 0 -631 -2 -637 -4 -5 -1 -14 -1 -20 0 -5 1 -7 -1
-4 -5 4 -3 1 -30 -7 -58 -8 -29 -16 -65 -19 -81 -3 -16 -10 -37 -16 -48 -6
-11 -8 -26 -5 -34 3 -8 2 -14 -3 -14 -5 0 -12 -19 -16 -42 -8 -45 -11 -56 -15
-60 -1 -2 -3 -10 -5 -18 -2 -8 -8 -30 -14 -47 -5 -18 -7 -33 -4 -33 3 0 0 -6
-6 -13 -6 -8 -8 -17 -4 -20 3 -4 0 -7 -8 -7 -11 0 -11 -2 1 -10 11 -7 11 -10
2 -10 -7 0 -11 -4 -7 -9 3 -5 0 -13 -6 -16 -5 -4 -8 -13 -5 -21 3 -8 0 -14 -7
-14 -8 0 -6 -4 3 -10 11 -7 11 -10 2 -10 -7 0 -10 -4 -7 -10 3 -5 2 -10 -4
-10 -6 0 -8 -7 -5 -15 4 -8 2 -15 -3 -15 -5 0 -10 -10 -10 -22 -1 -20 -8 -54
-13 -68 -1 -3 -2 -8 -1 -12 0 -5 -2 -8 -7 -8 -4 0 -8 -13 -9 -28 -3 -40 -7
-56 -15 -62 -4 -4 -9 -23 -10 -43 -2 -20 -7 -37 -11 -37 -5 0 -5 -4 -2 -10 3
-5 1 -10 -5 -10 -6 0 -8 -4 -5 -10 3 -5 3 -16 -1 -22 -5 -7 -9 -19 -10 -28 -1
-8 -2 -19 -4 -25 -1 -5 -2 -15 -1 -20 1 -8 197 -11 624 -10 342 0 628 -1 634
-3 9 -3 10 -9 2 -23 -5 -10 -6 -19 -2 -19 4 0 1 -5 -7 -10 -13 -8 -13 -10 0
-10 11 0 11 -3 2 -12 -7 -7 -12 -23 -12 -36 0 -13 -4 -21 -9 -18 -5 3 -8 0 -8
-7 2 -24 -15 -107 -22 -103 -3 2 -7 -10 -8 -27 -4 -49 -6 -57 -14 -57 -4 0 -6
-9 -4 -20 2 -11 0 -20 -5 -20 -4 0 -7 -8 -6 -17 2 -9 -3 -28 -10 -42 -7 -14
-15 -39 -18 -56 -2 -16 -5 -30 -6 -30 -2 0 -10 -35 -15 -62 -7 -44 -17 -63
-28 -56 -8 5 -8 2 0 -9 7 -8 9 -18 5 -22 -4 -4 -8 -12 -8 -17 -1 -5 -2 -10 -4
-11 -2 -4 -10 -40 -12 -60 -1 -10 -5 -18 -8 -18 -3 0 -6 -8 -7 -17 -2 -30 -13
-75 -24 -95 -6 -11 -8 -22 -5 -25 3 -3 0 -15 -6 -27 -6 -11 -12 -32 -14 -46
-1 -14 -3 -25 -4 -25 -1 0 -4 -11 -6 -25 -3 -14 -9 -26 -14 -28 -5 -2 -6 -10
-3 -18 3 -8 0 -21 -7 -29 -6 -8 -9 -19 -5 -25 3 -5 3 -10 -2 -10 -7 0 -11 -18
-16 -72 -1 -10 -5 -18 -10 -18 -5 0 -7 -7 -3 -15 3 -8 1 -15 -5 -15 -6 0 -9
-8 -7 -17 1 -10 -1 -24 -5 -31 -9 -13 -19 -57 -20 -82 0 -8 -3 -19 -7 -25 -8
-11 -23 -63 -24 -85 -1 -8 -4 -20 -8 -26 -7 -11 -20 -67 -21 -91 0 -7 -5 -13
-10 -13 -5 0 -7 -6 -4 -14 3 -8 3 -17 -1 -20 -7 -8 -13 -33 -16 -63 0 -13 -5
-23 -9 -23 -5 0 -5 -4 -2 -10 3 -5 1 -10 -6 -10 -7 0 -10 -3 -6 -6 3 -3 0 -26
-8 -50 -7 -24 -11 -44 -8 -44 3 0 1 -6 -4 -12 -6 -7 -9 -21 -8 -30 2 -10 -1
-18 -7 -18 -6 0 -8 -7 -4 -15 3 -8 0 -15 -6 -15 -6 0 -8 -3 -5 -7 4 -3 1 -13
-6 -21 -9 -13 -9 -14 0 -8 9 5 11 2 7 -8 -3 -9 -10 -16 -16 -16 -5 0 -6 -5 -3
-10 4 -6 1 -18 -7 -27 -9 -12 -9 -15 0 -9 17 10 15 1 -4 -18 -10 -10 -11 -16
-3 -16 9 0 8 -4 -1 -15 -7 -8 -9 -15 -5 -15 4 0 2 -7 -5 -15 -7 -8 -9 -15 -4
-15 4 0 3 -5 -4 -12 -16 -16 -15 -31 0 -22 7 4 6 -1 -3 -12 -9 -10 -14 -25
-11 -33 2 -8 1 -11 -4 -8 -5 3 -10 -6 -11 -19 -4 -44 -6 -54 -13 -54 -4 0 -6
-10 -5 -23 1 -12 -1 -26 -5 -32 -9 -12 -35 -117 -32 -128 1 -4 -3 -7 -9 -7 -5
0 -7 -5 -4 -10 4 -6 227 -10 637 -10 347 0 628 3 625 7 -4 3 -2 12 4 19 6 8 9
20 6 28 -3 8 -2 16 3 18 5 2 11 14 14 28 2 14 5 26 7 28 1 1 2 10 3 20 3 29
18 67 30 74 8 6 8 8 0 8 -8 0 -8 12 2 41 8 22 11 45 8 51 -4 7 -2 8 4 4 8 -5
12 3 12 24 0 17 3 29 8 26 4 -2 7 13 7 34 0 21 3 38 8 37 5 -1 11 12 13 28 4
40 8 58 15 70 11 18 22 70 20 89 -2 10 2 15 7 12 6 -3 9 2 7 11 -1 10 0 23 4
28 6 10 10 28 13 58 1 9 7 17 12 17 5 0 7 3 3 6 -3 3 1 26 8 52 8 25 12 49 9
54 -3 4 0 8 6 8 7 0 9 7 6 16 -4 9 -2 13 5 8 7 -4 9 0 5 14 -4 11 -2 23 3 26
6 4 8 13 4 21 -3 8 0 15 5 15 6 0 9 9 7 20 -2 11 0 20 4 20 4 0 8 6 9 13 0 6
4 26 7 42 4 17 8 36 8 43 0 6 4 12 9 12 4 0 7 3 7 8 -4 22 2 63 9 59 4 -3 8
11 9 30 1 19 6 40 11 46 5 7 8 20 7 29 -2 10 0 18 4 18 4 0 8 6 9 13 0 6 3 23
7 37 4 14 8 33 8 43 1 9 4 17 7 17 4 0 7 6 8 13 2 22 7 42 15 55 5 7 3 12 -5
12 -9 0 -10 3 -2 8 12 7 27 46 29 72 0 8 7 32 14 52 7 21 10 42 6 48 -3 5 0
10 7 10 9 0 13 10 12 30 -1 17 2 30 6 30 5 0 7 8 6 18 -2 9 1 20 6 23 4 3 9
24 11 46 1 23 4 39 7 37 2 -3 10 19 17 48 19 75 18 72 24 83 4 6 5 20 4 32 -1
12 4 25 12 27 8 4 12 15 9 31 -3 14 -2 25 2 25 4 0 8 12 9 27 0 15 6 29 12 31
5 2 7 10 5 17 -3 8 -2 20 2 27 9 14 13 29 18 68 2 14 9 38 15 53 6 16 9 33 5
38 -3 5 -1 9 4 9 9 0 20 36 28 89 1 13 7 27 13 30 5 3 240 6 522 6 l514 -1 0
-24 c0 -14 -3 -28 -8 -31 -7 -5 -13 -25 -24 -84 -3 -16 -10 -33 -16 -37 -8 -5
-7 -8 3 -8 12 0 13 -2 1 -9 -7 -5 -11 -13 -7 -19 3 -6 2 -13 -4 -17 -6 -4 -8
-11 -5 -16 4 -5 2 -9 -3 -9 -5 0 -9 -8 -9 -17 1 -26 -14 -76 -27 -92 -9 -12
-8 -13 4 -6 13 8 13 6 2 -8 -8 -9 -11 -21 -7 -27 3 -5 1 -10 -4 -10 -6 0 -10
-3 -10 -7 1 -5 0 -10 -1 -13 -1 -3 -3 -14 -5 -25 -4 -21 -12 -57 -15 -65 -1
-3 -2 -9 -1 -13 1 -4 -5 -20 -12 -35 -7 -15 -12 -35 -9 -46 2 -12 0 -16 -7
-11 -8 4 -10 -1 -7 -17 2 -13 -4 -40 -14 -61 -10 -20 -14 -37 -10 -37 5 0 2
-13 -6 -30 -9 -16 -13 -34 -9 -40 3 -5 1 -10 -4 -10 -6 0 -10 -3 -10 -7 1 -5
0 -10 -1 -13 -2 -7 -10 -51 -12 -72 -1 -10 -5 -18 -8 -18 -5 0 -10 -22 -13
-62 -1 -10 -5 -18 -10 -18 -4 0 -6 -4 -2 -9 3 -5 1 -12 -4 -16 -6 -3 -8 -12
-4 -20 3 -8 1 -15 -4 -15 -5 0 -9 -8 -10 -17 -4 -47 -16 -102 -22 -98 -4 2 -8
-6 -8 -18 -1 -20 -8 -53 -13 -67 -1 -3 -2 -8 -1 -12 0 -5 -4 -8 -11 -8 -9 0
-9 -3 -1 -11 9 -9 8 -16 -3 -27 -8 -8 -13 -21 -10 -28 3 -8 1 -14 -4 -14 -5 0
-7 -6 -4 -14 3 -8 1 -17 -5 -20 -6 -4 -8 -13 -4 -21 3 -8 1 -15 -4 -15 -6 0
-9 -13 -8 -30 1 -16 -1 -30 -4 -30 -3 0 -11 -16 -17 -35 -8 -24 -8 -32 0 -28
8 5 8 2 0 -8 -6 -8 -15 -27 -19 -44 -12 -44 -12 -45 -15 -50 -1 -3 -4 -14 -5
-25 -1 -11 -4 -22 -5 -25 -1 -3 -4 -9 -5 -15 -1 -5 -3 -11 -5 -12 -1 -2 -3
-12 -5 -23 -2 -11 -8 -35 -13 -52 -6 -18 -8 -33 -5 -33 3 0 0 -6 -6 -14 -6 -7
-12 -25 -13 -40 -1 -14 -7 -26 -13 -26 -5 0 -3 -5 5 -10 10 -6 11 -10 3 -10
-7 0 -13 -11 -13 -25 0 -14 -3 -25 -7 -25 -5 0 -9 -10 -10 -23 -2 -23 -10 -60
-13 -64 -3 -4 -5 -12 -14 -56 -5 -20 -11 -37 -15 -37 -3 0 -7 -11 -8 -25 -6
-56 -8 -65 -16 -65 -4 0 -5 -4 -2 -10 3 -5 3 -16 -2 -22 -9 -16 -14 -37 -14
-60 0 -10 -4 -20 -10 -23 -5 -4 -9 -17 -9 -30 0 -13 -5 -27 -11 -31 -8 -4 -7
-9 2 -15 11 -7 11 -9 1 -9 -7 0 -11 -4 -7 -9 3 -5 1 -12 -5 -16 -6 -4 -8 -11
-5 -16 4 -5 258 -9 637 -9 536 0 629 2 625 14 -3 8 -3 17 1 21 4 4 7 10 8 13
0 4 7 27 14 52 8 25 14 53 13 63 0 9 4 17 9 17 6 0 8 7 5 15 -4 8 -2 17 3 20
5 3 6 13 3 22 -5 12 -3 14 7 8 7 -5 11 -4 7 1 -3 5 1 34 10 64 8 30 17 69 20
85 3 17 8 35 13 40 4 6 6 18 5 27 -2 9 2 19 8 21 7 2 12 20 12 38 0 19 6 41
14 49 9 9 10 15 3 18 -8 2 -7 11 3 26 8 12 12 26 9 29 -4 4 -2 12 4 19 5 7 13
27 16 43 13 69 19 91 28 102 6 7 8 19 5 27 -3 8 -3 17 1 21 4 4 7 10 8 13 1
14 16 67 22 82 7 18 13 47 15 78 1 12 5 22 10 22 4 0 7 8 7 18 1 9 9 40 19 69
10 29 14 50 9 46 -5 -3 -5 4 1 16 31 59 31 61 21 61 -7 0 -4 10 4 22 19 27 21
41 4 33 -7 -4 -6 -1 3 7 9 7 15 21 13 31 -1 9 1 17 5 17 4 0 7 8 8 19 1 10 7
38 14 62 7 24 12 47 11 52 -1 4 2 7 6 7 4 0 9 10 10 23 3 42 14 87 22 87 4 0
8 6 7 12 -1 39 4 69 12 64 4 -3 7 6 5 19 -1 14 1 25 5 25 4 0 7 8 8 18 0 9 4
28 8 42 3 14 7 30 8 35 2 6 6 16 10 22 5 7 5 17 2 23 -3 6 -2 10 2 10 5 0 10
9 11 20 4 43 6 50 13 50 4 0 6 8 4 18 -1 9 2 22 7 29 5 7 7 17 4 22 -4 5 -2
12 4 16 6 4 8 11 5 16 -4 5 -2 9 2 9 5 0 10 11 11 25 3 45 5 55 11 55 3 0 7
12 8 26 0 15 7 30 15 35 11 7 11 9 -1 9 -11 0 -11 3 -1 15 6 8 9 19 5 25 -3 5
-2 10 3 10 5 0 9 6 10 13 0 6 3 23 7 37 3 14 8 32 10 40 2 8 4 15 5 15 2 0 10
36 13 60 1 11 6 23 11 26 5 4 9 18 9 33 0 14 5 26 11 27 6 1 297 2 646 4 349
1 639 3 644 4 5 0 6 4 3 8 -4 3 -1 13 6 21 9 13 9 14 0 8 -7 -4 -13 -3 -13 3
0 5 4 11 10 13 5 1 11 15 12 31 1 15 5 27 9 27 4 0 6 11 4 25 -1 14 2 25 7 25
6 0 8 6 5 14 -3 8 -3 17 1 21 4 4 8 11 8 16 1 5 2 10 4 12 1 1 3 9 5 17 15 68
37 148 44 160 4 8 7 23 5 33 -1 9 2 17 8 17 6 0 7 7 4 16 -4 9 -2 22 4 29 5 7
11 24 12 39 1 14 6 26 10 26 4 0 5 7 2 15 -4 8 -2 15 4 15 6 0 8 10 4 22 -3
13 -1 19 5 15 6 -4 9 6 8 23 -1 17 3 30 8 30 6 0 8 3 4 6 -3 3 1 23 8 44 7 21
11 41 8 44 -4 3 0 6 8 6 11 0 11 2 -1 10 -11 7 -11 10 -2 10 7 0 10 5 7 10 -3
6 -2 10 4 10 6 0 8 7 5 15 -4 8 -2 15 2 15 5 0 10 10 11 23 3 33 8 51 16 64 5
7 6 13 2 13 -3 0 1 15 8 33 28 68 74 63 -631 63 -546 0 -636 3 -633 15 2 8 4
24 4 37 1 12 4 22 7 22 4 0 7 6 8 13 1 14 10 51 12 55 6 6 24 96 22 105 -1 4
2 7 8 7 5 0 7 7 4 15 -4 8 -2 15 4 15 6 0 8 9 5 20 -3 11 0 20 6 20 6 0 11 5
11 11 0 5 -4 8 -10 4 -5 -3 -3 7 5 21 8 15 12 31 9 36 -3 4 -1 8 4 8 5 0 9 12
8 28 0 15 4 26 10 25 6 -1 10 8 9 20 -1 12 4 39 11 60 7 20 11 37 7 37 -3 0
-1 6 4 13 5 6 9 21 9 32 -1 11 3 23 7 26 4 3 10 18 13 34 3 16 8 33 11 38 3 6
8 24 10 41 6 52 8 60 19 81 6 11 10 28 9 38 -2 9 1 17 6 17 5 0 9 10 9 23 0
13 5 28 12 35 9 9 9 12 -1 12 -10 0 -11 3 -2 13 6 8 8 17 4 20 -3 4 -1 7 5 7
7 0 11 3 11 8 -5 22 15 91 24 85 6 -3 7 -1 3 5 -4 6 -2 31 5 54 6 24 12 49 12
56 0 6 5 12 10 12 5 0 7 6 4 14 -3 8 -3 17 1 21 8 7 9 13 11 51 0 14 5 23 10
20 5 -4 8 5 6 19 -1 14 2 28 7 31 4 3 6 9 3 14 -3 5 -1 11 4 15 6 3 8 12 4 20
-3 8 0 15 5 15 6 0 9 9 7 20 -2 11 0 20 5 20 5 0 7 9 5 20 -2 11 -1 20 3 20 4
0 9 12 10 27 1 15 6 29 10 32 4 3 8 20 7 38 0 17 3 29 8 26 4 -2 8 4 9 14 4
50 10 71 29 107 8 14 7 16 -2 11 -8 -6 -10 -4 -3 6 9 15 11 20 17 54 3 15 12
20 40 21 20 0 39 2 41 5 2 2 75 2 161 -1 86 -3 158 -3 160 0 2 3 56 3 120 0
64 -3 118 -3 120 0 2 3 56 3 120 0 64 -3 118 -3 120 0 2 3 56 3 120 0 64 -3
118 -3 121 -1 2 2 41 3 86 2 74 -2 84 0 96 19 10 16 10 20 0 20 -10 0 -9 3 1
9 8 5 11 16 8 25 -4 9 -3 16 2 16 5 0 12 20 15 45 4 24 11 47 16 50 5 3 7 12
4 19 -3 8 0 17 5 21 6 3 9 11 6 16 -4 5 -3 15 2 22 4 6 9 23 11 37 2 13 8 30
14 37 6 7 8 13 5 13 -3 0 -1 15 5 33 10 32 18 70 20 95 1 6 4 12 8 12 4 0 7 6
8 13 2 24 10 62 20 95 6 17 8 32 5 32 -3 0 -1 6 5 13 5 6 12 23 14 37 1 14 8
28 13 32 6 5 4 8 -5 8 -11 0 -12 2 -3 8 7 5 14 20 15 35 1 15 6 27 10 27 4 0
7 3 7 8 -4 18 15 92 23 92 5 0 6 5 3 10 -5 9 1 36 23 100 3 8 4 19 3 24 -1 5
4 13 11 19 10 6 8 7 -4 3 -10 -3 -19 -2 -22 2 -6 10 -48 8 -64 -2 -7 -4 -12
-4 -12 1 0 4 -25 8 -55 8 -30 0 -55 -3 -55 -6 0 -4 -15 -4 -32 0 -42 8 -70 7
-86 -2 -6 -5 -12 -5 -12 0 0 4 -25 8 -55 8 -30 0 -55 -3 -55 -6 0 -4 -15 -4
-32 0 -42 8 -70 7 -86 -2 -6 -5 -12 -5 -12 0 0 4 -25 8 -55 8 -30 0 -55 -3
-55 -6 0 -4 -15 -4 -32 0 -42 8 -70 7 -86 -2 -6 -5 -12 -5 -12 0 0 4 -25 8
-55 8 -30 0 -55 -4 -55 -8 0 -5 -5 -5 -11 -2 -14 9 -134 9 -148 1 -6 -4 -11
-4 -11 1 0 4 -16 8 -35 8 -19 0 -35 -3 -35 -7 0 -4 -6 -5 -14 -2 -7 3 -33 6
-57 7 -34 2 -43 6 -40 17 2 8 4 21 4 28 0 6 3 12 6 12 4 0 8 12 9 26 1 15 6
32 12 39 5 6 7 14 5 17 -3 3 -1 18 6 34 6 16 12 38 14 49 2 11 6 30 9 43 3 12
9 32 12 45 8 32 10 40 17 57 4 8 8 24 10 35 2 11 7 27 10 35 3 8 8 29 11 45
12 59 17 78 25 94 5 9 9 19 10 24 5 47 15 86 20 83 3 -2 7 12 8 32 1 19 8 39
15 43 10 7 10 9 -2 9 -9 0 -11 3 -5 8 6 4 12 16 13 27 2 11 7 22 10 25 4 3 8
14 9 25 2 29 12 70 23 101 6 14 8 30 4 35 -3 5 1 9 8 9 9 0 9 3 -2 10 -13 9
-13 10 1 10 8 0 16 9 16 23 3 47 8 67 16 67 5 0 7 6 4 14 -3 8 -3 17 1 20 7 8
13 33 16 64 0 12 5 22 10 22 4 0 6 7 2 15 -3 8 -2 15 3 15 4 0 8 6 9 13 0 6 3
22 6 35 3 12 8 31 11 42 3 11 8 30 11 43 3 12 6 28 6 35 1 6 4 12 8 12 4 0 6
10 5 23 -1 12 1 24 6 27 4 3 9 19 12 35 3 17 10 42 16 58 6 15 9 27 6 27 -2 0
2 18 10 40 8 22 14 43 14 45 0 3 5 22 10 42 6 20 8 40 5 45 -3 4 0 8 7 8 6 0
9 8 6 19 -3 11 1 22 8 25 7 2 11 16 10 30 -2 15 2 32 8 39 7 6 12 21 11 32 0
11 2 25 5 30 3 6 6 19 6 30 0 11 4 26 8 32 5 7 10 21 12 30 2 10 8 33 14 51 5
17 7 32 4 32 -3 0 0 7 7 15 7 9 10 18 7 22 -4 3 -2 12 4 20 6 7 9 13 6 13 -4
0 0 18 8 41 8 23 12 45 9 50 -3 5 0 9 6 9 7 0 10 7 6 15 -3 8 -2 15 2 15 4 0
9 9 10 20 4 43 6 50 13 50 4 0 6 7 5 17 -2 9 4 34 12 57 29 84 98 76 -611 73
-497 -2 -632 -5 -633 -14 -1 -7 -2 -14 -3 -15 -3 -4 -11 -40 -14 -63 -1 -11
-5 -22 -9 -25 -4 -3 -8 -21 -10 -39 -1 -18 -5 -34 -9 -37 -4 -2 -13 -33 -20
-68 -7 -36 -15 -63 -19 -61 -4 2 -6 -6 -5 -18 1 -12 -3 -33 -10 -47 -7 -14
-10 -31 -8 -37 3 -7 1 -13 -4 -13 -5 0 -9 -8 -10 -17 0 -10 -4 -29 -8 -43 -4
-14 -7 -33 -7 -42 1 -10 -3 -18 -7 -18 -4 0 -8 -6 -9 -12 -1 -7 -3 -24 -4 -38
-2 -14 -10 -31 -18 -38 -8 -8 -9 -11 -2 -7 13 7 17 -7 5 -19 -4 -3 -8 -12 -10
-19 -3 -14 -22 -88 -27 -102 -2 -5 -7 -29 -11 -52 -4 -24 -11 -43 -15 -43 -5
0 -7 -11 -5 -25 1 -14 -2 -25 -8 -25 -6 0 -8 -3 -4 -6 3 -4 0 -19 -8 -34 -11
-22 -12 -30 -2 -33 9 -4 9 -6 -1 -6 -7 -1 -10 -5 -7 -11 3 -5 2 -10 -4 -10 -6
0 -8 -7 -5 -15 4 -8 2 -15 -2 -15 -5 0 -10 -14 -11 -31 -1 -17 -8 -38 -15 -47
-11 -13 -11 -14 2 -7 12 7 13 6 4 -6 -6 -8 -10 -22 -9 -32 2 -9 -1 -15 -6 -11
-8 4 -14 -25 -10 -48 0 -5 -3 -8 -7 -8 -5 0 -8 -10 -7 -22 1 -13 -2 -25 -6
-28 -5 -3 -9 -20 -11 -38 -1 -18 -6 -32 -10 -32 -4 0 -5 -7 -2 -15 4 -8 2 -15
-4 -15 -5 0 -8 -12 -6 -26 1 -14 -3 -27 -10 -30 -7 -3 -11 -18 -10 -34 1 -17
-3 -30 -9 -30 -6 0 -8 -2 -5 -6 3 -3 0 -25 -7 -49 -8 -24 -11 -46 -8 -49 4 -3
1 -6 -5 -6 -6 0 -9 -7 -6 -15 4 -8 2 -15 -2 -15 -5 0 -10 -10 -11 -23 -2 -23
-10 -62 -13 -62 -1 0 -3 -7 -5 -15 -10 -39 -15 -57 -24 -87 -5 -17 -7 -34 -3
-37 3 -3 1 -6 -4 -6 -5 0 -11 -14 -12 -31 -1 -18 -6 -37 -9 -43 -4 -6 -9 -20
-10 -30 -2 -11 -8 -25 -13 -31 -6 -7 -5 -16 2 -23 9 -9 9 -12 -1 -12 -7 0 -9
-4 -6 -10 3 -5 2 -10 -3 -10 -5 0 -9 -6 -10 -12 -1 -15 -10 -52 -12 -55 -2 -2
-3 -11 -4 -20 -1 -10 -6 -29 -11 -43 -5 -14 -9 -29 -10 -35 -2 -15 -16 -68
-23 -85 -5 -14 -11 -40 -14 -67 -1 -7 -5 -13 -9 -13 -4 0 -6 -9 -4 -20 2 -11
1 -20 -3 -20 -4 0 -8 -8 -9 -17 -1 -16 -9 -50 -13 -63 -1 -3 -2 -9 -1 -13 1
-5 -4 -7 -11 -4 -7 2 -25 0 -40 -4 -16 -4 -28 -5 -28 -1 0 4 -16 7 -35 7 -19
0 -35 -3 -35 -6 0 -4 -15 -4 -32 0 -42 8 -70 7 -86 -2 -6 -5 -12 -5 -12 0 0 4
-25 8 -55 8 -30 0 -55 -4 -55 -8 0 -4 -7 -4 -17 1 -9 6 -29 6 -45 2 -15 -5
-28 -6 -28 -2 0 4 -16 7 -35 7 -19 0 -35 -3 -35 -6 0 -4 -15 -4 -32 0 -42 8
-70 7 -86 -2 -6 -5 -12 -5 -12 0 0 4 -25 8 -55 8 -30 0 -55 -3 -55 -6 0 -4
-15 -4 -32 0 -42 8 -70 7 -86 -2 -6 -5 -12 -5 -12 0 0 4 -27 7 -60 7 -53 -1
-60 1 -60 17 0 11 4 19 9 19 6 0 8 9 6 20 -2 11 1 20 7 20 6 0 9 3 6 6 -4 3
-2 20 4 37 5 18 11 41 13 52 2 11 8 35 14 53 5 17 7 32 3 32 -4 0 -1 4 6 9 7
4 14 19 14 32 1 13 6 30 12 38 8 11 8 13 -2 7 -7 -4 -3 9 8 28 11 21 15 36 9
36 -8 0 -8 5 1 15 6 8 9 18 6 24 -3 5 -2 11 4 13 5 1 11 15 12 31 1 15 6 27
10 27 4 0 4 7 1 17 -4 9 -2 14 3 11 5 -3 9 7 10 22 1 15 5 36 9 46 5 11 10 26
11 34 3 19 10 47 23 88 5 17 7 32 4 32 -3 0 0 7 7 15 7 8 9 15 5 15 -4 0 -2 6
4 13 6 8 8 17 4 20 -3 4 0 13 7 22 7 8 10 15 6 15 -3 0 0 15 7 33 7 17 13 41
12 52 0 11 3 22 7 25 4 3 10 17 12 30 2 14 5 25 6 25 1 0 3 11 4 25 2 14 8 35
14 46 6 12 9 24 5 27 -3 4 -1 12 5 19 5 7 13 27 16 43 3 17 10 50 17 75 6 25
12 51 12 58 0 6 3 12 7 12 5 0 9 18 12 58 1 6 5 12 9 12 4 0 6 11 4 25 -1 14
2 25 7 25 5 0 6 5 3 10 -3 6 -2 10 4 10 5 0 8 8 6 18 -1 9 2 22 7 29 5 7 7 17
3 23 -3 5 -1 10 5 10 6 0 9 4 6 8 -6 11 18 95 25 87 3 -3 5 5 4 18 -1 12 2 28
8 35 6 8 12 28 13 45 1 18 2 32 3 32 4 0 12 38 14 58 1 9 4 17 7 17 4 0 7 6 7
13 0 6 6 32 13 57 8 25 13 51 11 58 -1 6 3 12 9 12 6 0 9 4 6 9 -4 5 -1 22 5
38 10 25 17 57 21 91 1 6 5 12 9 12 4 0 6 8 4 18 -1 9 1 22 6 27 4 6 10 24 13
40 2 17 5 31 6 33 2 1 3 6 4 11 0 5 4 12 8 16 4 4 4 13 1 21 -3 8 0 14 6 14 6
0 8 7 5 15 -4 8 -2 15 4 15 5 0 7 11 5 23 -3 13 2 31 10 39 12 11 13 18 4 27
-8 8 -8 11 2 11 7 0 9 5 6 10 -3 6 -2 10 2 10 5 0 10 11 11 25 1 13 3 30 4 37
2 11 -117 13 -624 16 -346 1 -628 -1 -629 -5z m736 -3603 c2 3 74 3 160 0 86
-3 158 -3 160 0 2 3 62 4 133 2 122 -3 131 -4 129 -23 -1 -10 -4 -19 -7 -19
-3 0 -6 -8 -7 -17 -3 -31 -9 -58 -17 -74 -4 -9 -6 -20 -5 -25 1 -5 0 -16 -4
-24 -17 -44 -31 -97 -28 -109 1 -7 -1 -11 -6 -8 -5 3 -9 -2 -10 -11 -3 -46 -8
-72 -15 -72 -4 0 -7 -3 -7 -7 4 -23 -2 -54 -9 -49 -4 2 -7 -8 -6 -22 1 -15 -1
-31 -5 -37 -3 -5 -7 -14 -8 -20 -1 -5 -7 -30 -14 -55 -6 -25 -12 -51 -12 -57
0 -7 -5 -13 -10 -13 -6 0 -7 -3 -4 -6 3 -4 2 -15 -4 -25 -7 -14 -6 -19 3 -19
9 0 10 -3 2 -8 -12 -7 -26 -43 -30 -77 -1 -11 -3 -20 -4 -20 -1 0 -3 -8 -6
-17 -2 -10 -6 -26 -8 -35 -3 -10 -5 -18 -6 -18 -1 0 -4 -13 -6 -30 -3 -16 -8
-32 -12 -35 -4 -3 -8 -18 -10 -35 -2 -16 -9 -33 -15 -37 -8 -5 -7 -8 3 -8 13
0 13 -1 0 -10 -8 -5 -12 -12 -8 -15 3 -4 0 -21 -7 -40 -8 -18 -11 -36 -7 -39
3 -4 1 -10 -5 -14 -7 -4 -13 -22 -15 -40 -1 -18 -5 -32 -9 -32 -4 0 -6 -13 -5
-29 1 -17 -1 -28 -5 -25 -6 3 -21 -56 -21 -83 0 -5 -4 -13 -10 -20 -5 -7 -7
-17 -3 -23 3 -5 2 -10 -3 -10 -5 0 -9 -6 -10 -12 -3 -43 -7 -58 -15 -58 -4 0
-6 -4 -3 -9 4 -5 1 -22 -5 -38 -7 -15 -11 -36 -10 -45 1 -10 -2 -18 -8 -18 -6
0 -8 -7 -5 -15 4 -8 2 -15 -3 -15 -5 0 -9 -10 -8 -22 1 -13 -2 -30 -6 -38 -11
-21 -23 -71 -23 -97 0 -12 -4 -20 -8 -17 -4 3 -8 -3 -9 -13 -1 -31 -7 -54 -17
-66 -8 -9 -133 -12 -514 -11 -276 1 -509 2 -516 3 -9 1 -10 7 -4 19 4 9 8 24
7 32 -1 8 3 23 8 33 9 19 19 61 20 85 0 6 4 12 8 12 4 0 10 7 13 16 4 9 2 13
-5 8 -8 -4 -7 0 0 15 7 11 9 21 6 21 -4 0 -3 6 2 13 4 6 8 14 9 17 0 3 4 17 8
31 4 14 9 34 11 45 2 10 4 19 5 19 3 0 11 39 12 55 0 8 5 20 9 26 5 6 10 23
11 38 1 14 6 26 10 26 4 0 7 3 7 8 -4 23 2 52 10 48 5 -4 7 3 4 15 -4 12 0 25
8 30 12 7 12 9 0 9 -10 0 -11 3 -2 13 6 8 8 17 4 20 -3 4 -1 7 6 7 7 0 11 6 8
14 -3 8 -3 17 1 20 3 4 7 12 9 19 1 7 6 29 11 49 6 20 7 39 4 42 -3 4 0 6 6 6
7 0 12 13 12 28 0 16 3 32 7 36 4 3 8 16 10 28 2 12 8 26 13 33 5 6 7 20 6 30
-2 11 -1 25 3 30 3 6 6 15 8 20 1 6 9 37 18 70 10 33 19 71 20 84 2 13 7 27
12 30 5 3 8 16 7 29 -1 12 2 22 5 22 4 0 8 14 9 32 2 18 6 35 11 38 4 3 7 13
5 23 -1 9 2 17 7 17 6 0 7 5 4 10 -3 6 -1 10 6 10 8 0 8 4 -1 15 -9 10 -9 15
-1 15 6 0 10 3 9 8 -1 4 4 27 11 52 7 25 14 50 15 55 1 6 5 16 10 23 4 7 5 16
2 19 -3 3 -1 12 5 20 6 7 8 13 3 13 -5 0 -2 5 6 10 9 6 10 10 3 10 -9 0 -8 7
2 27 8 15 12 30 9 35 -3 4 -1 8 3 8 5 0 10 14 11 31 1 17 7 40 13 50 5 11 7
24 4 29 -3 5 -1 11 5 15 5 3 10 15 10 25 0 16 9 18 86 18 47 0 87 2 89 3 2 2
65 2 140 -1 75 -3 138 -3 140 0z"/>
</g>
</svg>
