<?xml version="1.0" standalone="no"?>
<!DOCTYPE svg PUBLIC "-//W3C//DTD SVG 20010904//EN"
 "http://www.w3.org/TR/2001/REC-SVG-20010904/DTD/svg10.dtd">
<svg version="1.0" xmlns="http://www.w3.org/2000/svg"
 width="16.000000pt" height="16.000000pt" viewBox="0 0 16.000000 16.000000"
 preserveAspectRatio="xMidYMid meet">
<metadata>
Created by potrace 1.11, written by Peter Selinger 2001-2013
</metadata>
<g transform="translate(0.000000,16.000000) scale(0.008000,-0.008000)"
fill="#000000" stroke="none">
<path d="M856 1832 c-3 -5 -27 -122 -53 -260 l-48 -251 -175 -3 -175 -3 -3
-47 -3 -48 165 0 c166 0 166 0 166 -22 -1 -13 -18 -113 -39 -223 l-37 -200
-170 -5 -169 -5 -6 -43 c-3 -23 -3 -44 -1 -47 3 -3 77 -5 164 -5 87 0 158 -3
158 -7 0 -5 -22 -119 -48 -256 -27 -136 -46 -249 -44 -252 3 -3 26 -5 52 -5
l47 0 28 148 c15 81 38 197 49 257 l22 110 208 3 c195 2 207 1 202 -15 -8 -25
-96 -475 -96 -490 0 -18 99 -18 104 0 3 6 25 123 51 260 l47 247 185 0 184 0
-3 48 -3 47 -171 3 -171 2 34 173 c18 94 38 196 44 224 l10 53 172 2 172 3 3
39 c2 24 -2 42 -10 47 -7 5 -82 9 -165 9 -84 0 -153 1 -153 3 0 1 22 115 49
252 27 138 45 254 41 258 -4 5 -27 7 -51 5 l-44 -3 -49 -257 -50 -258 -208 0
-208 0 5 23 c24 105 93 482 89 489 -7 11 -91 11 -98 0z m394 -629 c0 -10 -18
-110 -40 -223 -22 -113 -40 -206 -40 -207 0 -1 -92 -4 -205 -5 -167 -2 -205 0
-205 11 0 7 19 109 41 227 l42 214 203 0 c188 0 204 -1 204 -17z"/>
</g>
</svg>
